<svg width="48" height="34" viewBox="0 0 48 34" fill="none" xmlns="http://www.w3.org/2000/svg">
<path d="M4.16684 28.3332H14.4019C13.5165 27.5894 12.7168 26.7394 12.0028 25.7832C11.2884 24.8269 10.701 23.7881 10.2406 22.6668H4.16684V28.3332ZM23.9926 28.3332C27.1259 28.3332 29.7993 27.2289 32.0128 25.0203C34.2264 22.8121 35.3332 20.1411 35.3332 17.0074C35.3332 13.8741 34.2289 11.2007 32.0203 8.98716C29.8121 6.77361 27.1411 5.66684 24.0074 5.66684C20.8741 5.66684 18.2007 6.77114 15.9872 8.97972C13.7736 11.188 12.6668 13.8589 12.6668 16.9926C12.6668 20.1259 13.7711 22.7993 15.9797 25.0128C18.188 27.2264 20.8589 28.3332 23.9926 28.3332ZM37.7594 11.3332H43.8332V5.66684H33.5981C34.4835 6.41059 35.2832 7.26059 35.9972 8.21684C36.7116 9.17309 37.299 10.2119 37.7594 11.3332ZM0.625 34V17H4.16684V19.125H9.28438C9.21354 18.7708 9.16927 18.4255 9.15156 18.0891C9.13385 17.7526 9.125 17.3896 9.125 17C9.125 12.8563 10.5682 9.34115 13.4547 6.45469C16.3411 3.56823 19.8563 2.125 24 2.125H43.8332V0H47.375V17H43.8332V14.875H38.7156C38.7865 15.2292 38.8307 15.5745 38.8484 15.9109C38.8661 16.2474 38.875 16.6104 38.875 17C38.875 21.1438 37.4318 24.6589 34.5453 27.5453C31.6589 30.4318 28.1438 31.875 24 31.875H4.16684V34H0.625ZM23.9968 22.8082C22.9248 22.8082 22.008 22.4267 21.2465 21.6638C20.4851 20.901 20.1043 19.9839 20.1043 18.9125C20.1043 18.0979 20.243 17.3689 20.5203 16.7253C20.7976 16.0822 21.379 15.0877 22.2644 13.7418L24 11.1918L25.7356 13.7418C26.621 15.0877 27.2024 16.0822 27.4797 16.7253C27.757 17.3689 27.8957 18.0979 27.8957 18.9125C27.8957 19.9839 27.5139 20.901 26.7503 21.6638C25.9871 22.4267 25.0692 22.8082 23.9968 22.8082Z" fill="white"/>
</svg>
