<svg width="40" height="40" viewBox="0 0 40 40" fill="none" xmlns="http://www.w3.org/2000/svg">
<path d="M18.3278 23.7039C19.8378 23.7039 21.1113 23.1872 22.1483 22.1539C23.1854 21.1209 23.7039 19.8493 23.7039 18.3389C23.7039 16.8289 23.1872 15.5554 22.1539 14.5183C21.1209 13.4813 19.8493 12.9628 18.3389 12.9628C16.8289 12.9628 15.5554 13.4794 14.5183 14.5128C13.4813 15.5457 12.9628 16.8174 12.9628 18.3278C12.9628 19.8378 13.4794 21.1113 14.5128 22.1483C15.5457 23.1854 16.8174 23.7039 18.3278 23.7039ZM29.0556 31.7039L23.2594 25.9072C22.4691 26.4135 21.6572 26.7902 20.8239 27.0372C19.9906 27.2839 19.1661 27.4072 18.3506 27.4072C15.8328 27.4072 13.6881 26.5215 11.9167 24.75C10.1452 22.9785 9.25945 20.8396 9.25945 18.3333C9.25945 15.827 10.1452 13.6881 11.9167 11.9167C13.6881 10.1452 15.827 9.25944 18.3333 9.25944C20.8396 9.25944 22.9785 10.1452 24.75 11.9167C26.5215 13.6881 27.4072 15.8328 27.4072 18.3506C27.4072 19.1661 27.2746 19.9906 27.0094 20.8239C26.7439 21.6572 26.358 22.4691 25.8517 23.2594L31.7039 29.1111L29.0556 31.7039ZM3.70389 40C2.70389 40 1.83648 39.6328 1.10167 38.8983C0.367222 38.1635 0 37.2961 0 36.2961V26.9628H3.70389V36.2961H13.0372V40H3.70389ZM26.9628 40V36.2961H36.2961V26.9628H40V36.2961C40 37.2961 39.6328 38.1635 38.8983 38.8983C38.1635 39.6328 37.2961 40 36.2961 40H26.9628ZM0 13.0372V3.70389C0 2.70389 0.367222 1.83648 1.10167 1.10167C1.83648 0.367223 2.70389 0 3.70389 0H13.0372V3.70389H3.70389V13.0372H0ZM36.2961 13.0372V3.70389H26.9628V0H36.2961C37.2961 0 38.1635 0.367223 38.8983 1.10167C39.6328 1.83648 40 2.70389 40 3.70389V13.0372H36.2961Z" fill="white"/>
</svg>
