<svg width="46" height="40" viewBox="0 0 46 40" fill="none" xmlns="http://www.w3.org/2000/svg">
<path d="M0.5 17.7222V13.8889C4.18738 12.9507 7.90306 12.2902 11.6471 11.9072C15.3907 11.5246 19.175 11.3333 23 11.3333C26.825 11.3333 30.6093 11.5246 34.3529 11.9072C38.0969 12.2902 41.8126 12.9507 45.5 13.8889V17.7222C44.75 17.537 44 17.3643 43.25 17.2039C42.5 17.0431 41.75 16.8887 41 16.7406V24.1111H37.2498V16.0739C34.8749 15.7035 32.5062 15.4381 30.1437 15.2778C27.7812 15.1174 25.4 15.0372 23 15.0372C20.6 15.0372 18.2188 15.1081 15.8562 15.25C13.4937 15.3919 11.1251 15.648 8.75019 16.0183V24.1111H5V16.685C4.25 16.8331 3.5 16.9969 2.75 17.1761C2 17.355 1.25 17.537 0.5 17.7222ZM9.98769 40L13.1748 20.5739C13.7501 20.4998 14.3814 20.4413 15.0687 20.3983C15.7561 20.355 16.3874 20.3148 16.9627 20.2778L13.7002 40H9.98769ZM16.5875 0H20.3L19.2875 6.05556C18.7126 6.09259 18.0845 6.13889 17.4031 6.19444C16.7218 6.25 16.0936 6.30241 15.5187 6.35167L16.5875 0ZM21.1252 40H24.8748V31.815H21.1252V40ZM21.1252 26.4072H24.8748V20.2406H21.1252V26.4072ZM25.6623 0H29.4125L30.4812 6.35167C29.9064 6.31463 29.2721 6.26537 28.5783 6.20389C27.8846 6.14204 27.2501 6.09259 26.6748 6.05556L25.6623 0ZM32.2627 40L29.0002 20.2778C29.5751 20.3148 30.2126 20.3643 30.9127 20.4261C31.6124 20.4876 32.2499 20.5554 32.8252 20.6294L36.0123 40H32.2627Z" fill="white"/>
</svg>
