<svg width="395" height="62" viewBox="0 0 395 62" fill="none" xmlns="http://www.w3.org/2000/svg">
<g clip-path="url(#clip0_256_2738)">
<path d="M30.1553 4.51319L3.44493 50.9606L7.2295 57.5368L31.247 15.7658L45.0995 39.8541H50.4609L30.1553 4.51319ZM33.9398 26.4582L31.247 21.7574L9.84959 58.9738H61.0141L64.7744 52.4219L18.9956 52.3976C23.9932 43.7511 28.9665 35.1046 33.9398 26.4582ZM35.6623 29.454L29.6943 39.8541H41.6545L35.6623 29.454ZM27.9719 42.8499L24.1873 49.4018H64.7744L38.1126 3.02745H32.7511L55.6283 42.8499H43.377H27.9719ZM69.0927 50.9118L62.7123 61.9939H6.35614L0 50.9362L29.3062 0.00727844H39.835L69.0927 50.9118Z" fill="#00A5E1"/>
<path d="M104.658 41.3392H97.7436L95.73 37.6127H82.9692L81.1012 41.3392H74.1143L85.1526 20.6608H93.401L104.658 41.3392ZM93.3282 33.253L89.3011 25.6294L85.3467 33.253H93.3282ZM133.333 28.1138C133.333 29.5995 133.09 30.6955 132.63 31.4019C132.169 32.0839 131.222 32.7171 129.84 33.253C131.368 33.7157 132.338 34.4221 132.775 35.3963C133.09 36.0783 133.236 37.3448 133.236 39.1715V41.3392H126.953V39.9509C126.953 38.4165 126.88 37.4909 126.71 37.15C126.395 36.4436 125.618 36.0539 124.357 35.9809C123.362 35.9321 122.198 35.9078 120.863 35.9078C120.136 35.9078 119.068 35.9078 117.637 35.9321C116.23 35.9565 115.162 35.9565 114.459 35.9565V41.3392H108.127V20.6608H127.098C129.646 20.6608 131.368 21.294 132.241 22.5606C132.969 23.5835 133.333 25.4346 133.333 28.1138ZM127.22 28.2599C127.22 27.237 126.953 26.5306 126.395 26.1653C125.934 25.873 125.157 25.7025 124.066 25.7025H114.459V30.6712H123.896C125.012 30.6712 125.788 30.5494 126.249 30.2815C126.904 29.9649 127.22 29.2829 127.22 28.2599ZM163.246 28.1138C163.246 29.5995 163.003 30.6955 162.542 31.4019C162.057 32.0839 161.135 32.7171 159.752 33.253C161.281 33.7157 162.251 34.4221 162.688 35.3963C163.003 36.0783 163.149 37.3448 163.149 39.1715V41.3392H156.865V39.9509C156.865 38.4165 156.793 37.4909 156.623 37.15C156.307 36.4436 155.531 36.0539 154.27 35.9809C153.275 35.9321 152.11 35.9078 150.776 35.9078C150.048 35.9078 148.981 35.9078 147.549 35.9321C146.142 35.9565 145.075 35.9565 144.371 35.9565V41.3392H138.04V20.6608H157.011C159.558 20.6608 161.281 21.294 162.154 22.5606C162.882 23.5835 163.246 25.4346 163.246 28.1138ZM157.132 28.2599C157.132 27.237 156.865 26.5306 156.307 26.1653C155.846 25.873 155.07 25.7025 153.978 25.7025H144.371V30.6712H153.809C154.925 30.6712 155.701 30.5494 156.162 30.2815C156.817 29.9649 157.132 29.2829 157.132 28.2599ZM193.862 34.2759C193.862 36.882 193.183 38.7331 191.8 39.8291C190.563 40.8277 188.622 41.3392 185.953 41.3392H174.454C172.271 41.3392 170.645 40.6816 169.578 39.342C168.704 38.3191 168.171 36.7846 167.952 34.7387C167.855 33.8862 167.807 32.0839 167.807 29.3803C167.807 28.4061 167.831 26.969 167.831 25.0449C167.855 23.0964 167.879 21.6594 167.879 20.6608H174.139C174.139 21.5619 174.139 22.8772 174.139 24.6065C174.139 26.3601 174.139 27.651 174.139 28.5278C174.139 30.2084 174.163 31.548 174.187 32.4979C174.26 33.7644 174.478 34.6656 174.842 35.2015C175.279 35.8347 176.104 36.2001 177.292 36.2731C177.85 36.3218 178.578 36.3462 179.476 36.3462C179.937 36.3462 180.64 36.3218 181.562 36.3218C182.508 36.2975 183.188 36.2731 183.673 36.2731C185.322 36.2731 186.39 36.0052 186.899 35.445C187.336 34.9335 187.53 33.8619 187.53 32.23V20.6608H193.862V34.2759ZM226.031 41.3392H219.117L217.103 37.6127H204.342L202.499 41.3392H195.487L206.55 20.6608H214.774L226.031 41.3392ZM214.726 33.253L210.698 25.6294L206.72 33.253H214.726ZM250 41.3392H229.524V20.6608H235.832V36.2731H250V41.3392Z" fill="black"/>
</g>
<path d="M280.854 27V20.14H282.856V22.618H285.306V20.14H287.308V27H285.306V24.354H282.856V27H280.854ZM293.034 27V26.23C292.819 26.5287 292.539 26.7573 292.194 26.916C291.849 27.0653 291.466 27.14 291.046 27.14C290.393 27.14 289.842 26.9627 289.394 26.608C288.946 26.2533 288.722 25.7493 288.722 25.096C288.722 24.3773 288.951 23.8593 289.408 23.542C289.875 23.2153 290.5 23.024 291.284 22.968C291.592 22.9493 291.886 22.94 292.166 22.94C292.455 22.94 292.717 22.9447 292.95 22.954V22.464C292.95 22.156 292.857 21.932 292.67 21.792C292.483 21.6427 292.222 21.568 291.886 21.568C291.587 21.568 291.34 21.6427 291.144 21.792C290.957 21.932 290.831 22.1607 290.766 22.478L288.946 22.198C289.049 21.5727 289.352 21.05 289.856 20.63C290.36 20.21 291.046 20 291.914 20C292.334 20 292.726 20.042 293.09 20.126C293.454 20.21 293.767 20.35 294.028 20.546C294.299 20.7327 294.509 20.9893 294.658 21.316C294.817 21.6427 294.896 22.044 294.896 22.52V27H293.034ZM292.95 24.214C292.773 24.2047 292.567 24.2 292.334 24.2C292.101 24.2 291.877 24.2047 291.662 24.214C291.382 24.2327 291.149 24.3027 290.962 24.424C290.775 24.536 290.682 24.7087 290.682 24.942C290.682 25.1753 290.766 25.3573 290.934 25.488C291.111 25.6093 291.34 25.67 291.62 25.67C292.021 25.67 292.343 25.5767 292.586 25.39C292.829 25.2033 292.95 24.956 292.95 24.648V24.214ZM295.779 25.25H296.507C296.713 25.082 296.876 24.8627 296.997 24.592C297.119 24.312 297.189 23.9853 297.207 23.612C297.226 23.2293 297.24 22.7487 297.249 22.17C297.259 21.5913 297.268 20.9147 297.277 20.14H302.891V25.25H303.899V28.876H301.939V27H297.739V28.876H295.779V25.25ZM299.055 23.696C299.046 24.032 298.995 24.3307 298.901 24.592C298.808 24.844 298.696 25.0633 298.565 25.25H300.889V21.89H299.083C299.083 22.2073 299.079 22.5387 299.069 22.884C299.069 23.22 299.065 23.4907 299.055 23.696ZM311.007 24.004H306.387C306.424 24.536 306.574 24.9327 306.835 25.194C307.096 25.4553 307.442 25.586 307.871 25.586C308.282 25.586 308.585 25.4927 308.781 25.306C308.986 25.11 309.122 24.914 309.187 24.718L310.965 25.054C310.9 25.3153 310.788 25.572 310.629 25.824C310.48 26.076 310.279 26.3 310.027 26.496C309.775 26.6827 309.467 26.8367 309.103 26.958C308.748 27.0793 308.333 27.14 307.857 27.14C306.793 27.14 305.958 26.8227 305.351 26.188C304.754 25.5533 304.455 24.6807 304.455 23.57C304.455 22.982 304.544 22.464 304.721 22.016C304.898 21.568 305.136 21.1947 305.435 20.896C305.743 20.5973 306.102 20.3733 306.513 20.224C306.924 20.0747 307.362 20 307.829 20C308.874 20 309.663 20.3267 310.195 20.98C310.736 21.6333 311.007 22.4873 311.007 23.542V24.004ZM307.829 21.554C307.493 21.554 307.199 21.652 306.947 21.848C306.695 22.0347 306.522 22.3427 306.429 22.772H309.117C309.08 22.3707 308.949 22.0673 308.725 21.862C308.501 21.6567 308.202 21.554 307.829 21.554ZM315.816 27V24.228H315.228L313.674 27H311.462L313.576 23.346L311.574 20.14H313.73L315.214 22.702H315.816V20.14H317.79V22.702H318.392L319.89 20.14H322.032L320.03 23.36L322.158 27H319.946L318.392 24.228H317.79V27H315.816ZM323.127 27V20.14H325.129V22.618H327.579V20.14H329.581V27H327.579V24.354H325.129V27H323.127ZM335.308 27V26.23C335.093 26.5287 334.813 26.7573 334.468 26.916C334.122 27.0653 333.74 27.14 333.32 27.14C332.666 27.14 332.116 26.9627 331.668 26.608C331.22 26.2533 330.996 25.7493 330.996 25.096C330.996 24.3773 331.224 23.8593 331.682 23.542C332.148 23.2153 332.774 23.024 333.558 22.968C333.866 22.9493 334.16 22.94 334.44 22.94C334.729 22.94 334.99 22.9447 335.224 22.954V22.464C335.224 22.156 335.13 21.932 334.944 21.792C334.757 21.6427 334.496 21.568 334.16 21.568C333.861 21.568 333.614 21.6427 333.418 21.792C333.231 21.932 333.105 22.1607 333.04 22.478L331.22 22.198C331.322 21.5727 331.626 21.05 332.13 20.63C332.634 20.21 333.32 20 334.188 20C334.608 20 335 20.042 335.364 20.126C335.728 20.21 336.04 20.35 336.302 20.546C336.572 20.7327 336.782 20.9893 336.932 21.316C337.09 21.6427 337.17 22.044 337.17 22.52V27H335.308ZM335.224 24.214C335.046 24.2047 334.841 24.2 334.608 24.2C334.374 24.2 334.15 24.2047 333.936 24.214C333.656 24.2327 333.422 24.3027 333.236 24.424C333.049 24.536 332.956 24.7087 332.956 24.942C332.956 25.1753 333.04 25.3573 333.208 25.488C333.385 25.6093 333.614 25.67 333.894 25.67C334.295 25.67 334.617 25.5767 334.86 25.39C335.102 25.2033 335.224 24.956 335.224 24.648V24.214ZM338.543 22.478C338.543 21.75 338.776 21.1807 339.243 20.77C339.709 20.35 340.377 20.14 341.245 20.14H344.871V27H342.855V24.76H341.945L340.601 27H338.431L339.971 24.592C339.513 24.4427 339.159 24.1907 338.907 23.836C338.664 23.4813 338.543 23.0287 338.543 22.478ZM341.567 23.234H342.855V21.694H341.567C341.221 21.694 340.965 21.7593 340.797 21.89C340.638 22.0207 340.559 22.2167 340.559 22.478C340.559 22.7207 340.643 22.9073 340.811 23.038C340.988 23.1687 341.24 23.234 341.567 23.234ZM352.47 27.14C351.406 27.14 350.562 26.8227 349.936 26.188C349.311 25.544 348.998 24.6667 348.998 23.556C348.998 22.4453 349.311 21.5773 349.936 20.952C350.562 20.3173 351.406 20 352.47 20C353.553 20 354.402 20.3173 355.018 20.952C355.634 21.5773 355.942 22.4453 355.942 23.556C355.942 24.6667 355.634 25.544 355.018 26.188C354.402 26.8227 353.553 27.14 352.47 27.14ZM352.47 25.488C352.928 25.488 353.292 25.3247 353.562 24.998C353.833 24.6713 353.968 24.1907 353.968 23.556C353.968 22.9213 353.833 22.4453 353.562 22.128C353.292 21.8107 352.928 21.652 352.47 21.652C352.022 21.652 351.658 21.8107 351.378 22.128C351.108 22.436 350.972 22.912 350.972 23.556C350.972 24.1907 351.108 24.6713 351.378 24.998C351.658 25.3247 352.022 25.488 352.47 25.488ZM361.509 24.41L363.329 24.648C363.189 25.404 362.853 26.0107 362.321 26.468C361.798 26.916 361.089 27.14 360.193 27.14C359.166 27.14 358.345 26.8367 357.729 26.23C357.113 25.6233 356.805 24.7413 356.805 23.584C356.805 23.0053 356.889 22.492 357.057 22.044C357.225 21.596 357.458 21.2227 357.757 20.924C358.056 20.6253 358.415 20.3967 358.835 20.238C359.255 20.0793 359.712 20 360.207 20C360.692 20 361.117 20.0653 361.481 20.196C361.845 20.3267 362.153 20.4993 362.405 20.714C362.657 20.9287 362.858 21.1853 363.007 21.484C363.156 21.7733 363.259 22.0767 363.315 22.394L361.523 22.73C361.458 22.4407 361.327 22.1887 361.131 21.974C360.935 21.75 360.636 21.638 360.235 21.638C359.787 21.638 359.432 21.806 359.171 22.142C358.91 22.4687 358.779 22.94 358.779 23.556C358.779 24.1813 358.9 24.662 359.143 24.998C359.395 25.334 359.75 25.502 360.207 25.502C360.608 25.502 360.907 25.3993 361.103 25.194C361.308 24.9887 361.444 24.7273 361.509 24.41ZM364.54 27V20.14H366.542V22.618H368.992V20.14H370.994V27H368.992V24.354H366.542V27H364.54ZM375.754 27.14C374.69 27.14 373.845 26.8227 373.22 26.188C372.594 25.544 372.282 24.6667 372.282 23.556C372.282 22.4453 372.594 21.5773 373.22 20.952C373.845 20.3173 374.69 20 375.754 20C376.836 20 377.686 20.3173 378.302 20.952C378.918 21.5773 379.226 22.4453 379.226 23.556C379.226 24.6667 378.918 25.544 378.302 26.188C377.686 26.8227 376.836 27.14 375.754 27.14ZM375.754 25.488C376.211 25.488 376.575 25.3247 376.846 24.998C377.116 24.6713 377.252 24.1907 377.252 23.556C377.252 22.9213 377.116 22.4453 376.846 22.128C376.575 21.8107 376.211 21.652 375.754 21.652C375.306 21.652 374.942 21.8107 374.662 22.128C374.391 22.436 374.256 22.912 374.256 23.556C374.256 24.1907 374.391 24.6713 374.662 24.998C374.942 25.3247 375.306 25.488 375.754 25.488ZM380.508 27V20.14H383.77C384.582 20.14 385.212 20.2893 385.66 20.588C386.108 20.8773 386.332 21.33 386.332 21.946C386.332 22.226 386.262 22.506 386.122 22.786C385.992 23.0567 385.74 23.276 385.366 23.444C385.768 23.5653 386.057 23.7613 386.234 24.032C386.421 24.2933 386.514 24.6247 386.514 25.026C386.514 25.642 386.309 26.1273 385.898 26.482C385.488 26.8273 384.848 27 383.98 27H380.508ZM383.588 21.568H382.426V22.856H383.602C383.91 22.856 384.134 22.8093 384.274 22.716C384.414 22.6227 384.484 22.4593 384.484 22.226C384.484 21.9927 384.419 21.8247 384.288 21.722C384.167 21.6193 383.934 21.568 383.588 21.568ZM383.784 24.214H382.426V25.572H383.784C384.111 25.572 384.34 25.5207 384.47 25.418C384.601 25.306 384.666 25.1333 384.666 24.9C384.666 24.6573 384.596 24.4847 384.456 24.382C384.326 24.27 384.102 24.214 383.784 24.214ZM391.841 27V26.23C391.626 26.5287 391.346 26.7573 391.001 26.916C390.655 27.0653 390.273 27.14 389.853 27.14C389.199 27.14 388.649 26.9627 388.201 26.608C387.753 26.2533 387.529 25.7493 387.529 25.096C387.529 24.3773 387.757 23.8593 388.215 23.542C388.681 23.2153 389.307 23.024 390.091 22.968C390.399 22.9493 390.693 22.94 390.973 22.94C391.262 22.94 391.523 22.9447 391.757 22.954V22.464C391.757 22.156 391.663 21.932 391.477 21.792C391.29 21.6427 391.029 21.568 390.693 21.568C390.394 21.568 390.147 21.6427 389.951 21.792C389.764 21.932 389.638 22.1607 389.573 22.478L387.753 22.198C387.855 21.5727 388.159 21.05 388.663 20.63C389.167 20.21 389.853 20 390.721 20C391.141 20 391.533 20.042 391.897 20.126C392.261 20.21 392.573 20.35 392.835 20.546C393.105 20.7327 393.315 20.9893 393.465 21.316C393.623 21.6427 393.703 22.044 393.703 22.52V27H391.841ZM391.757 24.214C391.579 24.2047 391.374 24.2 391.141 24.2C390.907 24.2 390.683 24.2047 390.469 24.214C390.189 24.2327 389.955 24.3027 389.769 24.424C389.582 24.536 389.489 24.7087 389.489 24.942C389.489 25.1753 389.573 25.3573 389.741 25.488C389.918 25.6093 390.147 25.67 390.427 25.67C390.828 25.67 391.15 25.5767 391.393 25.39C391.635 25.2033 391.757 24.956 391.757 24.648V24.214ZM280.084 39.25H280.812C281.017 39.082 281.181 38.8627 281.302 38.592C281.423 38.312 281.493 37.9853 281.512 37.612C281.531 37.2293 281.545 36.7487 281.554 36.17C281.563 35.5913 281.573 34.9147 281.582 34.14H287.196V39.25H288.204V42.876H286.244V41H282.044V42.876H280.084V39.25ZM283.36 37.696C283.351 38.032 283.299 38.3307 283.206 38.592C283.113 38.844 283.001 39.0633 282.87 39.25H285.194V35.89H283.388C283.388 36.2073 283.383 36.5387 283.374 36.884C283.374 37.22 283.369 37.4907 283.36 37.696ZM289.852 38.06C289.861 37.7987 289.866 37.4953 289.866 37.15C289.875 36.8047 289.88 36.4547 289.88 36.1C289.889 35.736 289.894 35.3813 289.894 35.036C289.894 34.6907 289.894 34.392 289.894 34.14H295.55V41H293.534V35.89H291.714C291.714 36.0953 291.709 36.3193 291.7 36.562C291.7 36.7953 291.695 37.0287 291.686 37.262C291.686 37.4953 291.681 37.724 291.672 37.948C291.672 38.1627 291.667 38.3493 291.658 38.508C291.639 39.404 291.476 40.0433 291.168 40.426C290.86 40.8087 290.277 41 289.418 41H288.522V39.25H288.928C289.273 39.25 289.507 39.1707 289.628 39.012C289.759 38.8533 289.833 38.536 289.852 38.06ZM296.967 36.478C296.967 35.75 297.2 35.1807 297.667 34.77C298.133 34.35 298.801 34.14 299.669 34.14H303.295V41H301.279V38.76H300.369L299.025 41H296.855L298.395 38.592C297.937 38.4427 297.583 38.1907 297.331 37.836C297.088 37.4813 296.967 37.0287 296.967 36.478ZM299.991 37.234H301.279V35.694H299.991C299.645 35.694 299.389 35.7593 299.221 35.89C299.062 36.0207 298.983 36.2167 298.983 36.478C298.983 36.7207 299.067 36.9073 299.235 37.038C299.412 37.1687 299.664 37.234 299.991 37.234ZM314.548 37.696C314.548 38.76 314.254 39.6 313.666 40.216C313.078 40.8227 312.262 41.126 311.216 41.126C309.947 41.126 309.028 40.7807 308.458 40.09C307.889 39.39 307.604 38.3633 307.604 37.01V36.128C307.604 35.3067 307.693 34.6113 307.87 34.042C308.057 33.4727 308.323 33.006 308.668 32.642C309.014 32.278 309.443 32.0027 309.956 31.816C310.47 31.6293 311.048 31.5033 311.692 31.438C312.15 31.4007 312.579 31.3587 312.98 31.312C313.382 31.2653 313.741 31.2233 314.058 31.186L314.24 33.034C313.904 33.0713 313.526 33.1133 313.106 33.16C312.696 33.1973 312.271 33.2393 311.832 33.286C311.058 33.3607 310.474 33.566 310.082 33.902C309.7 34.2287 309.508 34.742 309.508 35.442C309.732 35.1247 310.04 34.8773 310.432 34.7C310.834 34.5227 311.263 34.434 311.72 34.434C312.542 34.434 313.218 34.7 313.75 35.232C314.282 35.764 314.548 36.5853 314.548 37.696ZM311.146 39.558C311.594 39.558 311.944 39.3993 312.196 39.082C312.448 38.7647 312.574 38.326 312.574 37.766C312.574 37.1873 312.453 36.744 312.21 36.436C311.968 36.128 311.618 35.974 311.16 35.974C310.731 35.974 310.372 36.0953 310.082 36.338C309.793 36.5807 309.648 36.898 309.648 37.29V37.64C309.648 38.312 309.784 38.802 310.054 39.11C310.325 39.4087 310.689 39.558 311.146 39.558ZM319.822 41.266C319.486 42.2273 319.103 42.876 318.674 43.212C318.254 43.548 317.619 43.716 316.77 43.716H315.832V41.966H316.546C316.863 41.966 317.115 41.9193 317.302 41.826C317.488 41.7327 317.633 41.5553 317.736 41.294L317.764 41.21L314.908 34.14H317.148L318.828 38.788L320.284 34.14H322.356L319.822 41.266ZM322.289 39.25H323.017C323.222 39.082 323.386 38.8627 323.507 38.592C323.628 38.312 323.698 37.9853 323.717 37.612C323.736 37.2293 323.75 36.7487 323.759 36.17C323.768 35.5913 323.778 34.9147 323.787 34.14H329.401V39.25H330.409V42.876H328.449V41H324.249V42.876H322.289V39.25ZM325.565 37.696C325.556 38.032 325.504 38.3307 325.411 38.592C325.318 38.844 325.206 39.0633 325.075 39.25H327.399V35.89H325.593C325.593 36.2073 325.588 36.5387 325.579 36.884C325.579 37.22 325.574 37.4907 325.565 37.696ZM335.421 41.266C335.085 42.2273 334.703 42.876 334.273 43.212C333.853 43.548 333.219 43.716 332.369 43.716H331.431V41.966H332.145C332.463 41.966 332.715 41.9193 332.901 41.826C333.088 41.7327 333.233 41.5553 333.335 41.294L333.363 41.21L330.507 34.14H332.747L334.427 38.788L335.883 34.14H337.955L335.421 41.266ZM348.733 34.14V39.25H349.741V42.876H347.781V41H338.877V34.14H340.879V39.25H342.797V34.14H344.799V39.25H346.717V34.14H348.733ZM356.849 38.004H352.229C352.266 38.536 352.416 38.9327 352.677 39.194C352.938 39.4553 353.284 39.586 353.713 39.586C354.124 39.586 354.427 39.4927 354.623 39.306C354.828 39.11 354.964 38.914 355.029 38.718L356.807 39.054C356.742 39.3153 356.63 39.572 356.471 39.824C356.322 40.076 356.121 40.3 355.869 40.496C355.617 40.6827 355.309 40.8367 354.945 40.958C354.59 41.0793 354.175 41.14 353.699 41.14C352.635 41.14 351.8 40.8227 351.193 40.188C350.596 39.5533 350.297 38.6807 350.297 37.57C350.297 36.982 350.386 36.464 350.563 36.016C350.74 35.568 350.978 35.1947 351.277 34.896C351.585 34.5973 351.944 34.3733 352.355 34.224C352.766 34.0747 353.204 34 353.671 34C354.716 34 355.505 34.3267 356.037 34.98C356.578 35.6333 356.849 36.4873 356.849 37.542V38.004ZM353.671 35.554C353.335 35.554 353.041 35.652 352.789 35.848C352.537 36.0347 352.364 36.3427 352.271 36.772H354.959C354.922 36.3707 354.791 36.0673 354.567 35.862C354.343 35.6567 354.044 35.554 353.671 35.554ZM358.155 41V34.14H362.943V35.89H360.157V41H358.155ZM366.99 41.14C365.926 41.14 365.081 40.8227 364.456 40.188C363.831 39.544 363.518 38.6667 363.518 37.556C363.518 36.4453 363.831 35.5773 364.456 34.952C365.081 34.3173 365.926 34 366.99 34C368.073 34 368.922 34.3173 369.538 34.952C370.154 35.5773 370.462 36.4453 370.462 37.556C370.462 38.6667 370.154 39.544 369.538 40.188C368.922 40.8227 368.073 41.14 366.99 41.14ZM366.99 39.488C367.447 39.488 367.811 39.3247 368.082 38.998C368.353 38.6713 368.488 38.1907 368.488 37.556C368.488 36.9213 368.353 36.4453 368.082 36.128C367.811 35.8107 367.447 35.652 366.99 35.652C366.542 35.652 366.178 35.8107 365.898 36.128C365.627 36.436 365.492 36.912 365.492 37.556C365.492 38.1907 365.627 38.6713 365.898 38.998C366.178 39.3247 366.542 39.488 366.99 39.488Z" fill="black"/>
<defs>
<clipPath id="clip0_256_2738">
<rect width="250" height="62" fill="white"/>
</clipPath>
</defs>
</svg>
