<svg width="80" height="80" viewBox="0 0 80 80" fill="none" xmlns="http://www.w3.org/2000/svg">
<path d="M50.6667 70L29.3892 62.5L14.2775 68.4442C13.2775 68.9258 12.3147 68.8658 11.3892 68.2642C10.4631 67.6619 10 66.7961 10 65.6667V19.1108C10 18.3886 10.2083 17.7497 10.625 17.1942C11.0417 16.6386 11.5925 16.2219 12.2775 15.9442L29.3892 10L50.6667 17.4442L65.7225 11.5C66.7225 11.0556 67.6853 11.125 68.6108 11.7083C69.5369 12.2917 70 13.1481 70 14.2775V61.2225C70 61.8703 69.7917 62.435 69.375 62.9167C68.9583 63.3983 68.4258 63.7594 67.7775 64L50.6667 70ZM47.6667 63.1108V22.0558L32.3333 16.8333V57.8892L47.6667 63.1108ZM53.2225 63.1108L64.4442 59.3892V17.7775L53.2225 22.0558V63.1108ZM15.5558 62.1667L26.7775 57.8892V16.8333L15.5558 20.5558V62.1667Z" fill="#00A5E1"/>
</svg>
