<svg width="80" height="80" viewBox="0 0 80 80" fill="none" xmlns="http://www.w3.org/2000/svg">
<path d="M12.2228 60C10.7228 60 9.42172 59.4492 8.31949 58.3475C7.21783 57.2453 6.66699 55.9442 6.66699 54.4442V25.5558C6.66699 24.0925 7.21783 22.8008 8.31949 21.6808C9.42172 20.5603 10.7228 20 12.2228 20H67.7778C69.2778 20 70.5789 20.5603 71.6812 21.6808C72.7828 22.8008 73.3337 24.0925 73.3337 25.5558V54.4442C73.3337 55.9442 72.7828 57.2453 71.6812 58.3475C70.5789 59.4492 69.2778 60 67.7778 60H12.2228ZM12.2228 54.4442H67.7778V25.5558H57.2228V40H51.667V25.5558H42.7778V40H37.2228V25.5558H28.3337V40H22.7778V25.5558H12.2228V54.4442Z" fill="#00A5E1"/>
</svg>
