<svg width="40" height="40" viewBox="0 0 40 40" fill="none" xmlns="http://www.w3.org/2000/svg">
<path d="M19.9997 1.66675L35.333 10.8334C35.8144 11.102 36.157 11.4677 36.3609 11.9305C36.5645 12.3936 36.6663 12.8612 36.6663 13.3334V32.2222C36.6663 32.9722 36.3909 33.6227 35.8401 34.1738C35.289 34.7247 34.6384 35.0001 33.8884 35.0001H6.11092C5.36092 35.0001 4.71037 34.7247 4.15926 34.1738C3.60842 33.6227 3.33301 32.9722 3.33301 32.2222V13.3334C3.33301 12.8612 3.43954 12.3936 3.65259 11.9305C3.86537 11.4677 4.20329 11.102 4.66634 10.8334L19.9997 1.66675ZM19.9997 21.0834L33.6663 13.028L19.9997 4.83342L6.33301 13.028L19.9997 21.0834ZM19.9997 24.2501L6.11092 16.028V32.2222H33.8884V16.028L19.9997 24.2501ZM19.9997 32.2222H33.8884H6.11092H19.9997Z" fill="#00A5E1"/>
</svg>
