<svg width="40" height="40" viewBox="0 0 40 40" fill="none" xmlns="http://www.w3.org/2000/svg">
<path d="M13.3057 29.722H26.6949V26.9445H13.3057V29.722ZM13.3057 22.7778H26.6949V19.9999H13.3057V22.7778ZM9.44491 36.6666C8.69491 36.6666 8.04435 36.3912 7.49324 35.8403C6.94241 35.2892 6.66699 34.6387 6.66699 33.8887V6.11117C6.66699 5.36117 6.94241 4.71061 7.49324 4.1595C8.04435 3.60867 8.69491 3.33325 9.44491 3.33325H23.917L33.3337 12.7499V33.8887C33.3337 34.6387 33.0582 35.2892 32.5074 35.8403C31.9563 36.3912 31.3057 36.6666 30.5557 36.6666H9.44491ZM22.5282 14.0553V6.11117H9.44491V33.8887H30.5557V14.0553H22.5282Z" fill="#00A5E1"/>
</svg>
